<?xml version="1.0" standalone="no"?>
<!DOCTYPE svg PUBLIC "-//W3C//DTD SVG 20010904//EN"
 "http://www.w3.org/TR/2001/REC-SVG-20010904/DTD/svg10.dtd">
<svg version="1.0" xmlns="http://www.w3.org/2000/svg"
 width="500.000000pt" height="500.000000pt" viewBox="0 0 500.000000 500.000000"
 preserveAspectRatio="xMidYMid meet">
<g transform="translate(0.000000,500.000000) scale(0.100000,-0.100000)"
fill="#000000" stroke="none">
<path d="M2385 4659 c-80 -8 -200 -24 -365 -50 -80 -12 -174 -43 -355 -116
-206 -82 -373 -183 -550 -332 -110 -92 -212 -192 -265 -261 -19 -24 -49 -60
-66 -80 -48 -56 -224 -333 -224 -353 0 -4 -15 -40 -33 -79 -68 -146 -119 -305
-143 -438 -62 -351 -61 -545 6 -945 16 -91 64 -237 124 -372 20 -45 36 -84 36
-88 0 -6 51 -94 140 -240 116 -190 378 -461 565 -582 27 -18 70 -46 95 -63 66
-45 157 -98 183 -106 12 -4 53 -21 92 -39 65 -30 162 -67 245 -95 90 -29 384
-76 498 -79 46 -1 90 -5 98 -8 23 -9 321 17 439 38 189 34 310 71 480 147 111
49 250 124 276 148 14 13 29 24 35 24 39 0 363 289 469 418 249 305 396 621
465 1002 34 191 45 375 31 525 -30 322 -76 510 -184 750 -140 312 -359 594
-636 815 -88 70 -112 87 -201 140 -19 11 -44 26 -55 32 -83 51 -123 71 -220
111 -269 110 -322 123 -625 161 -164 21 -252 25 -355 15z m59 -41 c-4 -7 -3
-8 5 -4 17 11 113 18 108 9 -3 -5 22 -7 54 -6 33 1 57 -1 55 -5 -2 -4 19 -7
48 -8 84 -2 288 -35 333 -54 31 -14 44 -15 53 -6 10 8 11 7 6 -9 -6 -15 -4
-17 5 -8 9 9 20 8 48 -4 54 -24 72 -31 114 -43 20 -6 35 -16 32 -21 -4 -5 -1
-9 4 -9 6 0 11 5 11 12 0 7 5 6 13 -4 6 -9 36 -23 65 -33 28 -9 52 -21 52 -27
0 -6 9 -8 20 -5 11 3 25 -2 32 -12 12 -15 11 -15 -7 -1 -19 14 -19 14 -6 -2 7
-10 17 -16 21 -13 4 2 28 -9 54 -26 26 -16 44 -24 40 -18 -5 8 -3 9 5 5 7 -5
10 -15 7 -23 -3 -8 -1 -11 4 -8 9 6 115 -56 130 -75 3 -3 28 -23 55 -43 64
-48 177 -149 232 -207 86 -92 123 -135 123 -146 0 -6 11 -20 25 -30 14 -10 25
-23 25 -27 0 -5 14 -27 31 -48 17 -21 27 -39 23 -39 -5 0 2 -7 14 -16 12 -8
22 -21 22 -29 0 -8 8 -19 18 -24 9 -6 14 -11 10 -11 -9 0 30 -78 42 -85 14 -9
40 -67 34 -76 -3 -5 -1 -9 4 -9 6 0 13 -7 16 -16 4 -10 2 -13 -7 -8 -9 6 -9 4
-1 -7 22 -26 84 -150 72 -143 -6 4 -4 -6 5 -22 14 -26 26 -57 27 -69 0 -3 10
-30 21 -60 11 -30 21 -71 22 -90 1 -19 4 -35 7 -35 5 0 11 -31 13 -72 1 -10 4
-18 8 -18 4 0 7 -10 6 -22 0 -13 8 -95 18 -183 16 -143 17 -177 6 -315 -7 -85
-13 -165 -12 -178 0 -13 -3 -21 -7 -18 -4 2 -7 -11 -6 -30 1 -19 -1 -34 -5
-34 -4 0 -7 -8 -7 -17 -2 -57 -51 -247 -75 -289 -11 -20 -19 -41 -18 -47 1 -7
-11 -39 -26 -72 -16 -33 -29 -62 -30 -65 0 -3 -6 -15 -13 -26 -6 -12 -8 -24
-5 -28 3 -3 0 -6 -7 -6 -7 0 -11 -3 -7 -6 8 -9 -31 -84 -44 -84 -6 0 -7 -5 -4
-10 3 -5 2 -10 -4 -10 -6 0 -7 -7 -4 -17 4 -10 2 -14 -4 -10 -6 4 -16 -5 -23
-21 -20 -49 -50 -97 -57 -94 -5 1 -8 -3 -8 -8 0 -6 -12 -26 -27 -44 -16 -19
-28 -40 -28 -45 0 -6 -9 -15 -20 -21 -11 -6 -18 -15 -15 -19 3 -5 -2 -12 -11
-15 -9 -3 -12 -11 -8 -18 5 -8 2 -9 -9 -5 -9 3 -16 3 -16 -1 3 -20 -2 -33 -11
-27 -5 3 -10 -3 -10 -14 0 -12 -7 -21 -16 -21 -8 0 -14 -3 -12 -7 2 -5 -9 -20
-24 -35 -15 -15 -28 -21 -28 -15 0 7 -4 6 -9 -3 -6 -8 -7 -18 -5 -22 3 -4 -1
-8 -8 -8 -8 0 -25 -12 -39 -28 -14 -15 -34 -33 -44 -40 -11 -7 -13 -9 -5 -5
13 6 13 5 1 -11 -8 -9 -20 -15 -28 -12 -8 3 -11 1 -8 -4 3 -6 1 -10 -5 -10 -6
0 -8 -4 -5 -10 4 -6 -1 -7 -11 -3 -11 4 -15 2 -11 -4 3 -5 -5 -16 -18 -23 -14
-7 -25 -18 -25 -23 0 -5 -8 -3 -17 4 -13 11 -15 11 -9 1 8 -13 -8 -31 -51 -59
-10 -7 -34 -24 -53 -38 -19 -14 -51 -32 -70 -41 -19 -9 -40 -23 -48 -33 -7 -9
-11 -10 -7 -3 3 6 1 12 -4 12 -6 0 -11 -5 -11 -10 0 -6 -20 -19 -44 -30 -24
-10 -47 -23 -50 -29 -4 -5 -14 -7 -23 -4 -11 4 -14 3 -9 -5 5 -8 2 -10 -8 -6
-9 3 -16 1 -16 -5 0 -6 -3 -10 -7 -9 -5 1 -27 -8 -51 -19 -23 -12 -39 -16 -35
-10 3 7 -4 3 -17 -8 -15 -13 -21 -15 -16 -5 4 8 1 7 -8 -4 -8 -10 -19 -15 -25
-12 -5 4 -26 -3 -46 -14 -20 -11 -40 -18 -46 -15 -5 4 -9 2 -9 -3 0 -9 -68
-26 -102 -25 -10 0 -18 -3 -18 -8 0 -5 -7 -5 -17 -2 -11 5 -14 3 -8 -6 6 -10
3 -11 -15 -1 -13 7 -20 8 -16 2 4 -6 -2 -11 -11 -11 -21 -1 -52 -5 -113 -14
-131 -20 -484 -29 -507 -14 -6 4 -46 9 -87 10 -50 1 -75 5 -72 12 2 7 -9 10
-30 8 -19 -1 -33 1 -30 5 2 4 -4 8 -14 8 -10 0 -17 -3 -14 -7 2 -4 -13 -3 -34
2 -20 5 -71 16 -112 25 -41 9 -80 21 -87 26 -7 5 -18 6 -24 2 -8 -4 -9 -3 -5
4 5 8 -1 12 -18 12 -13 0 -26 5 -28 10 -2 6 -13 12 -25 14 -12 3 -31 10 -42
16 -12 6 -21 8 -21 5 0 -3 -10 3 -22 14 -11 11 -25 18 -30 15 -5 -3 -19 2 -30
13 -15 12 -19 13 -14 3 4 -8 0 -6 -8 4 -12 15 -16 16 -16 5 0 -12 -2 -12 -10
1 -5 8 -10 11 -10 6 0 -5 -10 0 -23 11 -23 21 -56 37 -70 34 -5 -1 -6 3 -2 9
3 5 -1 10 -10 10 -10 0 -13 5 -9 12 4 6 3 8 -4 4 -13 -8 -84 39 -74 49 4 5 -1
5 -11 2 -11 -4 -16 -3 -12 3 3 6 -1 10 -10 10 -10 0 -13 5 -9 12 4 7 3 8 -4 4
-14 -8 -91 45 -139 96 -19 20 -45 39 -58 42 -13 3 -32 20 -42 36 -9 17 -24 30
-33 30 -13 0 -13 1 0 10 12 8 12 10 1 10 -7 0 -24 11 -36 24 -13 14 -25 23
-28 20 -2 -3 -7 2 -11 11 -4 11 -2 14 7 10 6 -4 3 1 -7 9 -11 9 -23 16 -26 16
-3 0 -24 23 -45 52 -22 29 -50 62 -61 73 -12 12 -27 32 -34 46 -23 44 -134
214 -145 221 -5 4 -6 8 -1 8 5 0 1 9 -9 20 -10 11 -14 20 -9 20 5 0 5 4 -1 8
-15 11 -42 47 -29 39 6 -3 -4 24 -22 61 -18 36 -30 70 -28 74 3 5 0 8 -5 8 -6
0 -10 3 -9 8 1 4 -4 21 -11 37 -26 62 -49 135 -44 135 3 0 -1 8 -10 18 -10 10
-14 22 -10 26 4 4 1 11 -7 16 -11 7 -12 10 -2 10 8 0 10 5 6 12 -12 19 -53
260 -47 275 3 7 1 13 -4 13 -19 0 -18 382 1 505 4 22 14 87 22 145 9 58 23
130 32 160 9 30 15 58 14 62 -1 4 10 32 23 63 14 31 22 61 19 67 -4 6 -3 8 3
5 10 -6 39 60 35 81 -2 6 2 12 8 12 6 0 8 5 5 10 -3 6 -1 10 4 10 6 0 11 6 11
13 0 17 80 170 94 179 6 4 7 8 2 8 -6 0 -1 7 10 16 10 8 13 12 6 9 -8 -4 -2
10 12 31 15 22 34 52 44 68 17 30 135 172 157 191 7 6 13 15 15 20 3 13 70 87
70 78 0 -4 11 8 25 27 14 19 25 30 25 24 0 -5 4 -4 8 2 4 6 16 16 27 23 l20
13 -20 -6 c-19 -5 -19 -5 -1 7 10 7 34 24 53 39 20 15 40 25 46 21 6 -3 7 -1
3 5 -4 6 14 26 41 46 77 57 86 64 123 93 19 15 31 21 26 13 -4 -8 0 -6 8 4 12
15 16 16 16 5 0 -8 3 -10 8 -4 16 23 92 76 101 71 5 -3 15 1 22 10 11 13 64
46 71 43 2 0 17 5 33 12 17 7 36 11 44 10 8 -2 12 3 9 11 -4 10 4 13 29 13 18
-1 37 4 41 10 4 7 24 18 45 24 20 7 37 16 37 20 0 4 10 7 23 6 12 -1 27 2 33
6 6 5 20 7 33 4 12 -2 19 0 16 5 -3 4 9 13 25 19 22 7 30 7 30 -2 0 -8 3 -9 8
-1 8 12 223 48 289 49 22 0 40 2 38 5 -2 3 22 7 52 8 31 1 59 4 61 7 10 10 23
5 16 -7z"/>
<path d="M2530 4342 c0 -7 -6 -12 -12 -10 -22 4 -59 -22 -69 -49 -5 -14 -10
-61 -11 -104 -1 -44 -5 -79 -9 -79 -4 0 -6 -11 -4 -25 1 -14 -1 -25 -6 -25 -4
0 -10 -15 -14 -32 -10 -44 -52 -130 -72 -145 -9 -7 -13 -13 -9 -13 19 0 -91
-123 -184 -206 -19 -17 -42 -40 -51 -50 -8 -11 -31 -30 -50 -44 -19 -14 -49
-39 -66 -57 -18 -17 -33 -30 -33 -29 0 2 -37 -34 -83 -78 -102 -99 -201 -222
-191 -238 4 -6 3 -8 -2 -5 -15 9 -104 -173 -104 -212 0 -9 -7 -28 -15 -44 -26
-49 -44 -239 -32 -342 4 -38 8 -77 9 -85 0 -8 5 -20 10 -27 5 -7 7 -16 4 -21
-3 -5 2 -21 10 -36 7 -16 14 -33 14 -38 0 -17 42 -101 61 -121 10 -12 19 -24
19 -29 0 -4 13 -22 29 -39 17 -17 31 -34 33 -37 12 -27 187 -152 213 -152 8 0
15 -4 15 -9 0 -17 93 -42 165 -44 17 -1 33 -6 37 -11 4 -6 13 -5 22 3 12 10
16 10 16 2 0 -7 4 -10 9 -7 5 3 30 8 57 11 82 9 138 33 187 79 26 24 44 46 40
50 -3 3 -2 6 4 6 6 0 13 9 16 20 9 33 -36 77 -86 84 -31 5 -62 21 -109 59 -36
29 -64 55 -62 59 2 4 -4 13 -14 20 -10 7 -27 34 -37 60 -11 25 -23 44 -26 42
-4 -2 -5 5 -2 15 3 14 -6 26 -33 45 -20 14 -41 23 -46 20 -4 -3 -8 0 -8 7 0 7
-3 9 -7 6 -3 -4 -18 3 -31 15 -14 13 -22 16 -18 8 4 -8 0 -6 -8 4 -9 11 -16
24 -16 29 0 4 -4 5 -10 2 -5 -3 -10 1 -10 9 0 9 -5 16 -12 16 -6 0 -9 3 -5 6
3 3 -3 16 -14 27 -37 40 -54 122 -54 262 0 117 3 139 29 220 17 50 37 101 47
115 9 14 28 45 42 70 25 45 112 142 120 134 2 -2 10 8 18 22 7 14 24 30 37 35
14 5 20 14 16 21 -5 7 -3 8 6 3 8 -5 18 -1 27 10 7 11 13 15 13 9 0 -5 4 -4 8
2 9 14 141 84 159 84 7 0 13 4 13 8 0 13 190 48 300 55 82 5 287 -31 351 -62
23 -12 45 -19 47 -16 3 3 -1 5 -8 5 -7 0 -10 3 -7 7 4 3 16 -2 28 -13 12 -10
22 -17 23 -16 2 7 61 -23 79 -41 10 -10 22 -15 27 -12 4 3 10 2 12 -2 1 -5 19
-16 38 -26 19 -10 51 -32 70 -48 19 -17 55 -45 80 -62 25 -17 53 -41 63 -53
10 -13 26 -26 37 -29 11 -4 18 -11 15 -16 -4 -5 -2 -9 3 -9 4 0 24 -14 43 -31
19 -17 47 -40 63 -52 15 -12 43 -34 61 -49 18 -16 37 -28 43 -28 6 0 15 -6 19
-12 13 -21 57 -55 49 -38 -6 11 -4 11 6 -1 20 -25 218 -121 246 -119 1 0 3 0
5 -1 1 0 11 -2 22 -5 11 -2 34 -6 51 -10 42 -8 88 30 86 73 -1 35 -31 133 -41
133 -4 0 -8 12 -9 27 -1 15 -8 36 -15 47 -7 12 -21 44 -32 71 -10 28 -31 69
-47 92 -15 23 -28 46 -28 52 0 6 -5 11 -12 11 -6 0 -8 3 -5 7 4 3 0 15 -10 25
-9 10 -12 18 -7 18 5 0 4 4 -1 8 -6 4 -28 32 -50 62 -22 30 -42 57 -46 60 -3
3 -10 12 -15 22 -16 29 -154 185 -154 174 0 -2 -32 27 -72 65 -40 37 -75 66
-79 63 -4 -2 -11 1 -15 7 -5 8 -3 9 7 4 12 -8 12 -6 0 8 -7 9 -20 17 -28 17
-8 0 -24 11 -35 25 -11 14 -26 25 -34 25 -8 0 -17 7 -20 15 -4 8 -10 15 -16
15 -5 0 -6 -6 -2 -12 4 -7 -3 -3 -14 9 -12 12 -31 24 -42 28 -11 4 -17 11 -14
17 5 7 0 9 -14 6 -13 -4 -20 -1 -19 5 1 6 -7 13 -18 15 -11 2 -27 10 -35 17
-12 11 -61 35 -80 40 -3 0 -14 6 -25 11 -11 6 -41 17 -67 25 -27 7 -48 17 -48
22 0 4 -3 6 -8 4 -4 -3 -24 3 -45 13 -21 11 -53 21 -70 24 -18 3 -54 12 -82
21 -46 14 -267 47 -325 49 -14 0 -28 5 -32 11 -5 6 -8 4 -8 -5 0 -13 -1 -13
-10 0 -7 11 -10 11 -10 2z m253 -73 c65 -11 162 -33 215 -50 91 -29 120 -40
241 -89 27 -11 86 -41 132 -68 46 -27 95 -55 109 -63 29 -17 154 -112 190
-145 14 -13 40 -36 59 -51 55 -44 206 -226 268 -321 81 -126 126 -212 176
-342 56 -142 64 -178 43 -186 -41 -16 -248 60 -348 127 -55 36 -189 141 -223
173 -80 77 -319 257 -395 298 -165 90 -351 138 -530 138 -379 0 -726 -235
-848 -575 -60 -168 -54 -419 14 -524 58 -88 148 -161 199 -161 9 0 18 -8 21
-17 53 -158 172 -280 293 -299 23 -4 44 -11 47 -16 13 -21 -46 -86 -103 -115
-55 -26 -65 -28 -188 -28 l-130 0 -85 42 c-152 76 -271 194 -323 319 -57 136
-69 201 -68 341 1 151 57 349 131 467 73 115 290 341 397 414 18 12 33 26 33
31 0 5 29 33 65 62 83 68 220 242 247 311 10 29 26 71 34 93 8 22 18 87 21
145 3 58 11 108 17 112 16 10 154 -1 289 -23z"/>
<path d="M1900 4227 c-47 -17 -87 -34 -90 -37 -3 -4 -12 -7 -20 -8 -16 0 -82
-24 -90 -32 -17 -17 -91 -59 -85 -48 5 7 -3 3 -16 -9 -13 -12 -43 -30 -66 -41
-24 -10 -40 -22 -36 -25 3 -4 -1 -7 -11 -7 -10 0 -14 -5 -10 -12 5 -7 3 -8 -6
-3 -7 4 -15 3 -19 -2 -3 -5 -49 -43 -101 -85 -105 -84 -260 -234 -220 -213 8
4 1 -5 -17 -21 -54 -49 -172 -206 -142 -189 8 5 2 -5 -12 -21 -40 -45 -69 -91
-62 -98 3 -3 2 -6 -4 -6 -5 0 -18 -19 -28 -42 -10 -24 -25 -51 -33 -60 -11
-13 -12 -18 -3 -18 9 0 8 -5 -3 -15 -8 -9 -12 -23 -9 -32 4 -11 3 -14 -5 -9
-8 5 -10 2 -6 -8 3 -9 2 -16 -4 -16 -5 0 -13 -11 -16 -25 -3 -13 -11 -37 -18
-52 -6 -15 -12 -30 -12 -33 -1 -3 -5 -11 -9 -17 -5 -7 -6 -17 -2 -22 3 -5 1
-12 -5 -16 -6 -4 -8 -11 -4 -16 3 -5 0 -16 -6 -24 -7 -8 -9 -15 -5 -15 4 0 3
-6 -3 -12 -17 -22 -49 -230 -56 -368 -6 -114 4 -124 130 -134 146 -11 276 -55
341 -116 12 -11 29 -20 38 -20 9 0 13 -5 10 -10 -3 -6 2 -13 11 -17 31 -12 55
-34 148 -138 19 -22 36 -44 36 -48 0 -5 4 -6 9 -3 5 3 14 -1 21 -9 7 -8 9 -15
6 -15 -7 0 40 -54 101 -117 17 -18 28 -33 25 -33 -3 0 16 -21 43 -47 27 -27
52 -47 57 -45 5 1 7 -1 4 -6 -3 -5 9 -22 26 -38 18 -16 26 -20 18 -9 -8 11 12
-7 46 -40 43 -43 88 -74 162 -112 56 -28 99 -46 95 -40 -5 9 -3 9 8 1 30 -24
135 -53 242 -68 21 -3 42 -8 47 -11 6 -3 10 -3 10 2 0 4 43 7 95 7 52 -1 98 2
101 7 3 5 20 9 37 9 18 0 63 14 101 30 38 16 74 27 80 23 6 -3 8 -3 4 2 -4 4
15 18 42 32 26 13 51 31 54 39 3 8 9 13 13 11 5 -2 37 26 73 62 36 36 56 58
46 50 -11 -8 1 11 26 43 26 32 60 92 79 140 32 79 34 89 33 203 0 102 -4 128
-23 173 -13 28 -27 52 -32 52 -5 0 -9 6 -9 14 0 16 -60 80 -68 72 -2 -3 -13
-1 -24 5 -15 8 -25 4 -53 -24 -19 -19 -35 -44 -35 -56 0 -12 -1 -24 -2 -28
-10 -46 -142 -183 -175 -183 -7 0 -13 -5 -13 -12 0 -6 -3 -9 -6 -6 -10 11 -77
-23 -98 -50 -12 -15 -28 -42 -37 -62 -9 -19 -32 -52 -51 -73 -39 -42 -162
-109 -186 -100 -10 4 -13 2 -8 -5 10 -17 -236 -7 -314 13 -36 9 -69 21 -75 26
-5 5 -17 9 -27 9 -10 0 -18 4 -18 8 0 4 -16 14 -35 21 -19 7 -41 18 -48 26 -8
7 -31 23 -53 34 -21 12 -35 21 -31 21 5 0 -12 18 -38 40 -25 22 -45 42 -45 45
1 4 -9 15 -22 25 -13 10 -37 43 -53 74 -16 31 -32 56 -35 56 -17 0 -91 184
-105 264 -15 82 -12 308 5 401 14 73 11 65 38 135 3 8 4 18 4 23 -1 4 3 7 8 7
5 0 9 4 7 8 -2 8 81 180 93 192 23 23 42 52 30 45 -13 -8 -13 -6 -1 8 7 9 17
14 22 11 5 -3 6 3 2 12 -4 11 -3 15 5 10 6 -4 16 3 23 16 6 13 20 32 30 43 11
11 40 47 66 80 26 33 52 65 58 70 7 6 27 30 46 55 18 25 38 50 44 56 55 61 75
84 69 84 -3 0 8 16 25 35 17 20 31 42 31 50 0 8 6 18 13 22 11 7 19 25 51 111
7 18 14 30 17 28 2 -2 5 10 6 27 1 17 6 33 10 36 11 8 10 111 -1 133 -4 10
-12 15 -17 12 -5 -3 -9 -1 -9 4 0 18 -57 9 -140 -21z m140 -40 c0 -131 -114
-341 -296 -544 -85 -96 -245 -298 -264 -333 -122 -233 -144 -298 -161 -473
-23 -231 7 -394 104 -564 23 -41 48 -85 55 -99 7 -13 57 -67 110 -119 86 -85
110 -102 207 -150 132 -65 193 -79 350 -79 161 -1 219 18 327 107 41 34 86
105 102 158 2 9 23 21 48 27 95 24 211 131 247 228 12 30 21 61 21 70 0 25 28
27 61 3 19 -13 44 -48 62 -87 82 -175 29 -400 -136 -575 -75 -80 -151 -132
-246 -168 -216 -83 -489 -59 -720 63 -73 38 -239 171 -296 238 -16 19 -40 44
-51 55 -12 11 -47 51 -78 90 -56 68 -200 220 -227 240 -8 6 -36 28 -64 51 -71
58 -120 86 -195 112 -76 25 -202 46 -233 38 -12 -3 -32 -3 -45 1 -24 6 -24 6
-17 107 13 203 47 353 122 551 53 141 59 153 129 267 30 48 54 90 54 94 0 12
161 204 221 263 62 61 243 211 284 235 19 12 70 42 113 68 44 27 101 57 128
67 183 72 232 89 257 90 24 1 27 -2 27 -32z"/>
<path d="M2500 3476 c-41 -6 -88 -17 -103 -24 -16 -7 -32 -12 -37 -12 -5 0
-32 -14 -60 -30 -28 -17 -48 -25 -44 -19 4 7 -24 -12 -62 -41 -38 -28 -68 -55
-67 -58 0 -4 -5 -13 -13 -20 -8 -7 -14 -10 -14 -6 0 8 -79 -100 -114 -155 -15
-23 -23 -41 -20 -41 3 0 -1 -11 -10 -25 -9 -14 -14 -25 -11 -25 3 0 1 -8 -4
-18 -6 -11 -13 -32 -17 -48 -9 -42 -14 -205 -6 -218 3 -6 7 -16 8 -23 5 -31
27 -83 35 -83 5 0 9 -7 9 -15 0 -18 52 -75 69 -75 7 0 10 -4 7 -9 -3 -5 1 -12
10 -15 10 -4 13 -2 8 7 -5 9 -4 9 7 0 17 -17 22 -16 46 5 26 22 51 68 31 56
-10 -6 -11 -5 -1 8 7 8 10 18 6 21 -3 4 -1 7 5 7 6 0 16 16 23 35 7 19 17 35
22 35 4 0 7 3 5 8 -2 4 19 29 46 57 28 27 46 43 42 35 -5 -11 -4 -11 6 1 7 8
35 24 63 34 54 21 115 69 115 91 0 23 63 120 72 112 2 -2 23 13 47 32 23 19
44 33 45 31 0 -2 12 2 26 9 13 7 40 15 60 17 72 8 236 9 251 2 8 -4 33 -10 56
-12 22 -3 50 -10 62 -16 11 -7 21 -9 21 -6 0 2 30 -12 68 -32 37 -20 77 -41
89 -47 13 -6 23 -14 23 -18 0 -5 4 -8 10 -8 30 0 230 -237 230 -273 0 -5 4 -6
8 -3 5 3 9 0 9 -7 1 -7 16 -46 33 -87 34 -81 40 -101 42 -142 0 -15 4 -25 8
-23 4 3 7 -74 7 -170 0 -96 -4 -175 -8 -175 -4 0 -10 -28 -14 -61 -4 -34 -18
-86 -31 -116 -13 -29 -24 -60 -24 -67 0 -8 -3 -16 -7 -18 -5 -1 -21 -28 -37
-58 -16 -30 -35 -62 -42 -71 -8 -9 -11 -19 -7 -22 3 -4 1 -7 -6 -7 -8 0 -11
-6 -7 -17 4 -10 4 -14 0 -10 -7 7 -54 -38 -54 -52 0 -4 -18 -27 -40 -52 -22
-24 -42 -52 -46 -62 -3 -9 -10 -15 -15 -12 -5 4 -9 0 -9 -8 0 -8 -17 -32 -37
-54 -66 -69 -104 -113 -97 -113 4 0 -5 -11 -19 -24 -14 -13 -23 -26 -21 -29 3
-3 -4 -8 -15 -12 -12 -3 -19 -10 -16 -15 3 -5 -6 -20 -19 -33 -14 -14 -22 -28
-19 -31 4 -3 1 -6 -6 -6 -7 0 -9 -4 -6 -10 3 -5 2 -10 -3 -10 -10 0 -57 -90
-54 -103 1 -4 -3 -7 -10 -7 -6 0 -8 -3 -5 -6 4 -4 0 -19 -7 -33 -42 -79 -52
-179 -23 -225 20 -30 51 -33 112 -10 22 8 48 17 59 19 10 2 24 9 32 16 8 6 14
9 14 6 0 -2 26 6 58 20 31 13 65 27 75 30 9 3 17 9 17 14 0 5 5 9 11 9 5 0 7
-6 3 -13 -4 -6 4 -3 17 9 23 20 99 68 109 69 22 3 49 18 45 26 -4 5 0 9 8 9 7
0 28 15 47 33 18 17 30 25 25 17 -7 -13 39 23 70 55 6 6 21 16 35 23 14 7 17
10 7 7 -10 -3 -15 -1 -12 5 3 6 12 10 20 10 8 0 21 10 29 22 9 12 16 19 16 15
0 -4 11 3 25 15 13 11 22 25 19 30 -3 5 3 12 13 14 11 3 32 22 49 42 16 20 40
47 54 61 14 13 19 21 11 16 -8 -4 5 12 27 36 23 24 41 46 40 49 -1 3 13 20 30
39 17 19 29 37 27 40 -3 2 4 14 14 25 25 27 126 223 142 276 7 22 16 40 20 40
4 0 6 8 5 18 -2 9 3 26 10 37 7 11 22 52 35 90 12 39 25 75 29 80 4 6 7 24 5
42 -1 18 2 30 7 27 4 -3 9 3 9 13 3 41 6 71 12 123 3 30 9 94 12 141 6 82 5
88 -19 116 -24 28 -32 31 -113 37 -84 6 -135 12 -140 16 -2 2 -6 3 -10 4 -5 1
-18 7 -30 14 -13 7 -23 9 -23 5 0 -4 -4 -3 -8 2 -4 6 -37 25 -73 44 -36 18
-88 54 -116 80 -28 25 -69 62 -91 81 -23 19 -46 45 -53 56 -6 12 -22 27 -35
34 -13 7 -21 16 -19 21 3 4 -14 24 -37 45 -24 20 -36 34 -28 30 8 -4 3 3 -11
16 -14 13 -28 32 -32 42 -4 9 -11 15 -15 12 -5 -3 -15 5 -23 16 -26 38 -211
218 -224 218 -3 0 -28 18 -57 39 -28 22 -55 38 -60 35 -4 -3 -8 0 -8 6 0 6 -4
9 -9 6 -5 -3 -11 0 -14 8 -3 7 -16 16 -29 19 -26 7 -148 50 -163 58 -5 3 -25
5 -42 5 -18 -1 -33 2 -33 5 0 7 7 6 -135 13 -65 3 -140 0 -185 -8z m273 -37
c106 -15 229 -55 316 -101 42 -22 78 -43 81 -47 3 -4 37 -32 75 -62 68 -53
227 -212 256 -256 8 -12 46 -55 85 -96 38 -41 83 -90 99 -108 33 -37 164 -142
205 -164 113 -62 259 -101 346 -92 50 5 54 4 60 -18 7 -27 -13 -270 -27 -335
-35 -162 -152 -483 -189 -520 -8 -8 -70 -111 -70 -116 0 -12 -119 -165 -183
-237 -154 -171 -391 -343 -586 -428 -116 -50 -262 -100 -273 -93 -13 8 -10 60
7 126 23 87 89 215 152 294 30 38 60 78 66 89 6 11 29 40 53 65 23 25 58 65
78 90 20 25 44 54 55 65 83 88 207 291 250 407 56 152 74 366 47 548 -39 254
-232 522 -456 632 -140 68 -199 81 -365 81 -166 0 -213 -14 -312 -93 -47 -38
-69 -65 -94 -116 -18 -36 -40 -68 -48 -71 -118 -39 -209 -116 -258 -218 -18
-38 -33 -80 -33 -92 0 -28 -26 -30 -55 -5 -60 50 -105 163 -105 261 0 161 111
374 248 476 26 19 52 38 57 43 6 4 46 23 90 41 130 55 281 72 428 50z"/>
<path d="M2745 3083 c-11 -3 -25 -10 -32 -15 -7 -5 -16 -7 -22 -4 -5 3 -11 3
-13 -1 -1 -5 -24 -19 -50 -32 -26 -13 -45 -27 -43 -32 3 -4 0 -11 -6 -15 -8
-4 -9 -3 -5 4 4 7 3 12 -3 12 -11 0 -33 -38 -51 -86 -6 -14 -6 -23 -1 -20 5 3
11 -3 14 -14 3 -11 11 -22 19 -24 80 -23 106 -33 122 -48 11 -10 26 -18 33
-18 8 0 11 -4 8 -10 -3 -5 -1 -10 6 -10 28 0 127 -139 114 -160 -5 -9 65 -93
72 -86 3 3 23 -6 44 -20 21 -13 44 -24 50 -24 7 0 10 -2 7 -5 -3 -3 9 -21 26
-39 43 -46 58 -66 50 -66 -3 0 -1 -6 5 -14 13 -16 42 -108 36 -115 -3 -2 0
-10 6 -18 6 -7 8 -13 3 -13 -5 0 -9 -38 -9 -84 0 -53 4 -82 10 -78 6 3 5 -1
-1 -9 -7 -8 -15 -37 -19 -65 -3 -28 -13 -64 -21 -79 -8 -15 -11 -32 -7 -38 4
-6 1 -7 -7 -2 -10 6 -12 4 -7 -8 3 -9 3 -17 -1 -19 -4 -2 -21 -30 -37 -63 -16
-33 -53 -83 -81 -112 -28 -29 -49 -54 -47 -57 2 -2 -16 -18 -41 -36 -25 -17
-46 -35 -46 -40 0 -6 -5 -10 -11 -10 -6 0 -31 -13 -56 -30 -24 -16 -48 -30
-54 -30 -5 0 -9 -3 -9 -7 0 -12 -95 -53 -140 -60 -13 -2 -30 -9 -37 -15 -7 -6
-19 -8 -28 -5 -8 4 -38 0 -68 -8 -38 -10 -87 -12 -168 -8 -151 7 -148 6 -143
14 2 4 -15 8 -39 9 -71 3 -77 4 -77 13 0 5 -7 6 -16 3 -9 -3 -12 -2 -9 5 4 6
1 9 -6 8 -8 -1 -21 0 -29 4 -8 3 -39 13 -67 23 -34 12 -48 21 -40 26 11 7 -5
12 -40 11 -7 -1 -11 3 -8 7 3 4 -6 11 -20 14 -14 4 -25 11 -25 17 0 6 -4 8 -9
5 -5 -3 -14 1 -21 9 -7 8 -19 15 -27 15 -8 0 -11 5 -7 12 4 6 3 8 -4 4 -6 -3
-27 10 -46 29 -20 20 -36 33 -36 29 0 -4 -8 2 -17 13 -10 11 -32 28 -50 38
-18 10 -30 22 -27 27 3 4 1 8 -4 8 -5 0 -20 9 -33 20 -48 40 -123 105 -140
122 -9 9 -20 14 -23 11 -3 -4 -6 -1 -6 5 0 7 -7 12 -16 12 -8 0 -13 4 -9 9 3
5 -3 12 -12 15 -10 3 -34 20 -53 36 -36 31 -139 87 -152 82 -5 -1 -8 2 -8 8 0
5 -9 10 -20 10 -11 0 -20 5 -20 10 0 6 -3 9 -7 8 -5 -1 -32 6 -62 15 -79 25
-142 23 -168 -5 -20 -23 -24 -52 -9 -76 4 -6 4 -17 1 -22 -3 -6 -1 -10 5 -10
6 0 8 -5 5 -10 -3 -5 -1 -10 5 -10 6 0 10 -6 9 -12 -2 -7 5 -30 14 -52 9 -21
17 -45 17 -53 0 -8 3 -12 8 -10 4 3 8 -6 9 -20 0 -14 7 -29 15 -34 7 -5 10 -9
5 -9 -6 0 10 -34 59 -120 6 -11 14 -17 19 -12 5 4 5 1 0 -7 -4 -7 -4 -16 1
-20 13 -9 32 -41 45 -73 6 -16 16 -28 22 -28 6 0 7 -3 4 -6 -4 -4 1 -14 11
-23 9 -9 22 -25 29 -36 6 -11 16 -19 23 -17 7 1 10 -3 8 -10 -3 -7 4 -21 15
-31 11 -9 17 -17 14 -17 -3 0 10 -17 29 -38 80 -88 154 -158 165 -154 5 1 9
-4 9 -12 0 -15 70 -73 83 -68 5 1 6 -1 4 -5 -3 -5 2 -17 10 -28 16 -20 16 -20
9 0 -6 16 -2 15 21 -8 16 -15 34 -27 40 -27 6 0 13 -4 15 -8 8 -19 111 -82
134 -82 8 0 14 -4 14 -9 0 -5 10 -13 23 -17 12 -3 34 -15 49 -25 14 -11 32
-19 39 -19 7 0 21 -8 32 -17 15 -13 18 -14 12 -3 -7 13 -5 12 11 -1 15 -12 57
-28 114 -44 3 -1 16 -6 30 -12 24 -11 42 -17 65 -23 6 -1 33 -9 60 -18 47 -14
63 -17 125 -27 14 -2 54 -8 90 -13 102 -15 236 -13 250 4 7 7 17 11 23 7 6 -3
7 -1 3 5 -4 7 -3 12 2 12 6 0 10 15 10 33 1 32 16 146 27 202 10 49 16 65 25
65 5 0 7 7 4 15 -4 8 -1 15 6 15 7 0 10 6 7 14 -3 8 5 27 19 43 13 15 24 33
24 40 0 6 10 19 22 27 12 9 19 16 15 16 -4 0 8 16 28 36 19 19 33 39 29 45 -3
5 -2 8 3 7 4 -2 9 2 11 7 2 6 12 15 22 20 10 6 45 35 77 65 32 31 81 73 108
95 28 21 66 56 86 77 20 21 42 38 50 38 7 0 10 3 6 6 -3 4 18 29 48 57 30 28
55 57 55 65 0 9 3 13 6 9 7 -7 94 100 94 115 0 5 6 6 13 2 6 -4 9 -4 5 1 -4 4
-3 14 3 22 6 7 8 13 3 13 -5 0 -4 4 1 8 17 12 45 60 45 77 0 8 4 15 10 15 5 0
12 17 16 38 4 20 10 42 14 47 13 17 39 117 45 175 18 173 -2 341 -55 465 -11
25 -19 48 -19 52 0 3 -3 9 -8 12 -5 3 -20 24 -33 46 -34 56 -76 100 -145 153
-59 45 -188 115 -212 115 -7 0 -13 5 -13 10 0 5 -6 7 -14 4 -8 -3 -17 -3 -20
1 -4 3 -14 8 -24 10 -32 7 -177 11 -197 5z m229 -58 c111 -34 196 -86 287
-176 87 -87 136 -174 169 -303 25 -98 27 -298 5 -396 -17 -72 -67 -205 -99
-262 -57 -101 -240 -302 -371 -405 -86 -69 -269 -255 -319 -326 -72 -102 -105
-195 -118 -338 l-11 -119 -85 0 c-266 0 -610 103 -856 257 -207 129 -375 281
-517 468 -64 85 -154 240 -199 345 -38 87 -90 231 -90 250 0 31 127 11 221
-35 29 -14 56 -25 61 -25 16 0 248 -164 273 -193 13 -15 227 -194 279 -233
137 -102 309 -180 458 -208 154 -29 259 -31 392 -7 137 25 222 60 351 146 81
54 210 181 239 236 7 13 25 46 41 73 56 100 77 181 83 316 3 75 0 147 -7 180
-26 127 -100 226 -211 282 -52 27 -65 39 -70 63 -12 57 -49 113 -114 172 -63
58 -150 103 -197 103 -64 0 36 99 141 138 77 29 164 28 264 -3z"/>
</g>
</svg>
